# xmcd
#
# Track frame offsets:
# 150
# 18560
# 37488
# 49192
# 63610
# 76561
# 87623
# 100941
# 113884
# 132483
# 146815
# 161222
# 177692
# 190380
# 203970
# 216981
# 229590
# 240184
# 255792
# 269074
# 281643
# 294207
# 307885
# 319921
#
# Disc length: 4446 seconds
#
#
# Revision: 0
# Processed by: cddbd v1.4PL0 Copyright (c) Steve Scherf et al.
# Submitted via: FreeRIP 2.40 
#
DISCID=71115c18
DTITLE=Don Williams - Don Williams' Greatest Hits
DYEAR=1900
DGENRE=Country
TTITLE0=I Believe In You
TTITLE1=Good Old Boys Like Me
TTITLE2=I Oughta Know
TTITLE3=Tulsa Time
TTITLE4=Lay Down Beside Me
TTITLE5=It Must Be Love
TTITLE6=Love Me Over Again
TTITLE7=Do I Look Like A Daddy To You
TTITLE8=I Hope This Day Is Good
TTITLE9=Listen To The Radio
TTITLE10=If Hollywood Don't Need You
TTITLE11=Love Is On A Roll
TTITLE12=Here I Go Again
TTITLE13=Life Is A Miracle
TTITLE14=I Don't Need Another Word
TTITLE15=Reason To Go On
TTITLE16=Love Me Tonight
TTITLE17='Til The Rivers Run Dry
TTITLE18=Say It Again
TTITLE19=She Never Knew Me
TTITLE20=Some Broken Hearts Never Mend
TTITLE21=Silver And Gold
TTITLE22=Nobody But You
TTITLE23=Livin' To Love
EXTD=
EXTT0=
EXTT1=
EXTT2=
EXTT3=
EXTT4=
EXTT5=
EXTT6=
EXTT7=
EXTT8=
EXTT9=
EXTT10=
EXTT11=
EXTT12=
EXTT13=
EXTT14=
EXTT15=
EXTT16=
EXTT17=
EXTT18=
EXTT19=
EXTT20=
EXTT21=
EXTT22=
EXTT23=
PLAYORDER=
